<svg version="1.1" viewBox="0.0 0.0 960.0 540.0" fill="none" stroke="none" stroke-linecap="square" stroke-miterlimit="10" xmlns:xlink="http://www.w3.org/1999/xlink" xmlns="http://www.w3.org/2000/svg"><clipPath id="g57e5b8d4e7_0_329.0"><path d="m0 0l960.0 0l0 540.0l-960.0 0l0 -540.0z" clip-rule="nonzero"/></clipPath><g clip-path="url(#g57e5b8d4e7_0_329.0)"><path fill="#ffffff" d="m0 0l960.0 0l0 540.0l-960.0 0z" fill-rule="evenodd"/><path fill="#e06666" d="m309.6882 129.40683l0 0c0 -18.055801 14.6371155 -32.692917 32.6929 -32.692917l236.91339 0c8.670715 0 16.986267 3.4444199 23.11737 9.575531c6.1311035 6.131111 9.575562 14.446678 9.575562 23.117386l0 0l0 0c0 18.055786 -14.637146 32.6929 -32.692932 32.6929l-236.91339 0c-18.055786 0 -32.6929 -14.6371155 -32.6929 -32.6929z" fill-rule="evenodd"/><path fill="#ffffff" d="m399.03937 130.66058l-2.90625 0l0 6.46875l-3.640625 0l0 -17.6875l6.578125 0q3.125 0 4.828125 1.40625q1.703125 1.390625 1.703125 3.9375q0 1.8125 -0.78125 3.03125q-0.78125 1.203125 -2.375 1.921875l3.828125 7.21875l0 0.171875l-3.921875 0l-3.3125 -6.46875zm-2.90625 -2.953125l2.9375 0q1.375 0 2.125 -0.703125q0.765625 -0.703125 0.765625 -1.921875q0 -1.25 -0.71875 -1.96875q-0.703125 -0.71875 -2.171875 -0.71875l-2.9375 0l0 5.3125zm23.19394 -8.265625l4.546875 12.828125l4.515625 -12.828125l4.78125 0l0 17.6875l-3.65625 0l0 -4.828125l0.359375 -8.34375l-4.765625 13.171875l-2.5 0l-4.765625 -13.171875l0.359375 8.34375l0 4.828125l-3.640625 0l0 -17.6875l4.765625 0zm24.414581 17.6875q-0.25 -0.46875 -0.359375 -1.171875q-1.265625 1.421875 -3.3125 1.421875q-1.9375 0 -3.203125 -1.109375q-1.265625 -1.125 -1.265625 -2.828125q0 -2.09375 1.546875 -3.203125q1.546875 -1.125 4.46875 -1.140625l1.625 0l0 -0.75q0 -0.90625 -0.46875 -1.453125q-0.46875 -0.546875 -1.484375 -0.546875q-0.875 0 -1.390625 0.421875q-0.5 0.421875 -0.5 1.171875l-3.5 0q0 -1.15625 0.703125 -2.125q0.703125 -0.96875 1.984375 -1.515625q1.28125 -0.5625 2.890625 -0.5625q2.4375 0 3.859375 1.234375q1.421875 1.21875 1.421875 3.421875l0 5.703125q0.015625 1.859375 0.53125 2.828125l0 0.203125l-3.546875 0zm-2.90625 -2.4375q0.78125 0 1.4375 -0.34375q0.65625 -0.359375 0.96875 -0.9375l0 -2.25l-1.3125 0q-2.640625 0 -2.8125 1.8125l0 0.203125q0 0.65625 0.453125 1.09375q0.46875 0.421875 1.265625 0.421875zm16.007996 -7.40625q-0.71875 -0.109375 -1.265625 -0.109375q-1.984375 0 -2.609375 1.359375l0 8.59375l-3.515625 0l0 -13.140625l3.328125 0l0.09375 1.5625q1.046875 -1.8125 2.921875 -1.8125q0.578125 0 1.09375 0.15625l-0.046875 3.390625zm6.4635315 4.578125l-1.265625 1.25l0 4.015625l-3.515625 0l0 -18.65625l3.515625 0l0 10.34375l0.671875 -0.875l3.375 -3.953125l4.21875 0l-4.75 5.46875l5.15625 7.671875l-4.03125 0l-3.375 -5.265625zm7.9594116 -1.40625q0 -3.0625 1.375 -4.890625q1.390625 -1.828125 3.78125 -1.828125q1.921875 0 3.171875 1.4375l0 -6.703125l3.515625 0l0 18.65625l-3.171875 0l-0.171875 -1.390625q-1.3125 1.640625 -3.375 1.640625q-2.3125 0 -3.71875 -1.828125q-1.40625 -1.828125 -1.40625 -5.09375zm3.515625 0.265625q0 1.84375 0.640625 2.828125q0.640625 0.984375 1.875 0.984375q1.625 0 2.296875 -1.375l0 -5.1875q-0.65625 -1.375 -2.28125 -1.375q-2.53125 0 -2.53125 4.125zm10.500641 -0.28125q0 -1.953125 0.75 -3.484375q0.765625 -1.53125 2.171875 -2.375q1.421875 -0.84375 3.296875 -0.84375q2.65625 0 4.328125 1.640625q1.6875 1.625 1.890625 4.40625l0.015625 0.90625q0 3.03125 -1.6875 4.859375q-1.6875 1.828125 -4.53125 1.828125q-2.84375 0 -4.546875 -1.828125q-1.6875 -1.828125 -1.6875 -4.953125l0 -0.15625zm3.515625 0.25q0 1.875 0.703125 2.859375q0.703125 0.984375 2.015625 0.984375q1.28125 0 1.984375 -0.96875q0.71875 -0.984375 0.71875 -3.125q0 -1.84375 -0.71875 -2.84375q-0.703125 -1.015625 -2.0 -1.015625q-1.296875 0 -2.0 1.015625q-0.703125 1.0 -0.703125 3.09375zm22.5336 1.671875l1.7187195 -8.375l3.390625 0l-3.359375 13.140625l-2.9374695 0l-2.484375 -8.265625l-2.484375 8.265625l-2.9375 0l-3.34375 -13.140625l3.390625 0l1.703125 8.359375l2.40625 -8.359375l2.546875 0l2.390625 8.375zm10.076324 -8.375l0.109375 1.515625q1.40625 -1.765625 3.78125 -1.765625q2.09375 0 3.109375 1.234375q1.015625 1.21875 1.046875 3.671875l0 8.484375l-3.515625 0l0 -8.40625q0 -1.109375 -0.484375 -1.609375q-0.484375 -0.515625 -1.609375 -0.515625q-1.484375 0 -2.234375 1.265625l0 9.265625l-3.5 0l0 -13.140625l3.296875 0z" fill-rule="nonzero"/><path fill="#ffffff" d="m411.81738 174.45746l-7.0 0l0 4.75l8.21875 0l0 2.921875l-11.859375 0l0 -17.6875l11.828125 0l0 2.953125l-8.1875 0l0 4.21875l7.0 0l0 2.84375zm8.585724 5.078125q0.96875 0 1.578125 -0.53125q0.609375 -0.53125 0.640625 -1.421875l3.28125 0q-0.015625 1.34375 -0.734375 2.453125q-0.703125 1.109375 -1.953125 1.734375q-1.25 0.609375 -2.75 0.609375q-2.8125 0 -4.453125 -1.796875q-1.625 -1.796875 -1.625 -4.953125l0 -0.234375q0 -3.03125 1.609375 -4.84375q1.625 -1.8125 4.4375 -1.8125q2.46875 0 3.953125 1.40625q1.5 1.40625 1.515625 3.734375l-3.28125 0q-0.03125 -1.015625 -0.640625 -1.65625q-0.609375 -0.640625 -1.59375 -0.640625q-1.234375 0 -1.859375 0.90625q-0.625 0.890625 -0.625 2.890625l0 0.359375q0 2.03125 0.609375 2.921875q0.625 0.875 1.890625 0.875zm6.956085 -4.09375q0 -1.953125 0.75 -3.484375q0.765625 -1.53125 2.171875 -2.375q1.421875 -0.84375 3.296875 -0.84375q2.65625 0 4.328125 1.640625q1.6875 1.625 1.890625 4.40625l0.015625 0.90625q0 3.03125 -1.6875 4.859375q-1.6875 1.828125 -4.53125 1.828125q-2.84375 0 -4.546875 -1.828125q-1.6875 -1.828125 -1.6875 -4.953125l0 -0.15625zm3.515625 0.25q0 1.875 0.703125 2.859375q0.703125 0.984375 2.015625 0.984375q1.28125 0 1.984375 -0.96875q0.71875 -0.984375 0.71875 -3.125q0 -1.84375 -0.71875 -2.84375q-0.703125 -1.015625 -2.0 -1.015625q-1.296875 0 -2.0 1.015625q-0.703125 1.0 -0.703125 3.09375zm18.2211 2.8125q0 -0.65625 -0.640625 -1.015625q-0.640625 -0.375 -2.046875 -0.671875q-4.6875 -0.984375 -4.6875 -3.984375q0 -1.75 1.453125 -2.921875q1.453125 -1.171875 3.796875 -1.171875q2.5 0 4.0 1.1875q1.5 1.171875 1.5 3.0625l-3.515625 0q0 -0.765625 -0.484375 -1.25q-0.484375 -0.5 -1.515625 -0.5q-0.890625 0 -1.375 0.40625q-0.484375 0.40625 -0.484375 1.015625q0 0.59375 0.546875 0.953125q0.5625 0.359375 1.875 0.625q1.3125 0.25 2.203125 0.578125q2.78125 1.015625 2.78125 3.53125q0 1.796875 -1.546875 2.921875q-1.53125 1.109375 -3.96875 1.109375q-1.65625 0 -2.9375 -0.59375q-1.28125 -0.59375 -2.015625 -1.609375q-0.71875 -1.03125 -0.71875 -2.21875l3.328125 0q0.046875 0.921875 0.6875 1.421875q0.640625 0.5 1.71875 0.5q1.015625 0 1.53125 -0.375q0.515625 -0.390625 0.515625 -1.0zm10.570801 -1.34375l2.4375 -8.171875l3.765625 0l-5.28125 15.1875l-0.296875 0.6875q-1.171875 2.578125 -3.890625 2.578125q-0.765625 0 -1.546875 -0.234375l0 -2.65625l0.53125 0q1.0 0 1.484375 -0.296875q0.5 -0.296875 0.78125 -1.0l0.40625 -1.09375l-4.609375 -13.171875l3.78125 0l2.4375 8.171875zm14.704651 1.34375q0 -0.65625 -0.640625 -1.015625q-0.640625 -0.375 -2.046875 -0.671875q-4.6875 -0.984375 -4.6875 -3.984375q0 -1.75 1.453125 -2.921875q1.453125 -1.171875 3.796875 -1.171875q2.5 0 4.0 1.1875q1.5 1.171875 1.5 3.0625l-3.515625 0q0 -0.765625 -0.484375 -1.25q-0.484375 -0.5 -1.515625 -0.5q-0.890625 0 -1.375 0.40625q-0.484375 0.40625 -0.484375 1.015625q0 0.59375 0.546875 0.953125q0.5625 0.359375 1.875 0.625q1.3125 0.25 2.203125 0.578125q2.78125 1.015625 2.78125 3.53125q0 1.796875 -1.546875 2.921875q-1.53125 1.109375 -3.96875 1.109375q-1.65625 0 -2.9375 -0.59375q-1.28125 -0.59375 -2.015625 -1.609375q-0.71875 -1.03125 -0.71875 -2.21875l3.328125 0q0.046875 0.921875 0.6875 1.421875q0.640625 0.5 1.71875 0.5q1.015625 0 1.53125 -0.375q0.515625 -0.390625 0.515625 -1.0zm9.867645 -12.75l0 3.234375l2.25 0l0 2.578125l-2.25 0l0 6.546875q0 0.734375 0.28125 1.0625q0.28125 0.3125 1.078125 0.3125q0.578125 0 1.03125 -0.09375l0 2.65625q-1.03125 0.328125 -2.125 0.328125q-3.703125 0 -3.765625 -3.734375l0 -7.078125l-1.921875 0l0 -2.578125l1.921875 0l0 -3.234375l3.5 0zm10.248657 16.625q-2.890625 0 -4.703125 -1.765625q-1.8125 -1.78125 -1.8125 -4.734375l0 -0.34375q0 -1.984375 0.765625 -3.546875q0.765625 -1.5625 2.15625 -2.40625q1.40625 -0.84375 3.21875 -0.84375q2.6875 0 4.234375 1.703125q1.546875 1.703125 1.546875 4.828125l0 1.4375l-8.359375 0q0.171875 1.28125 1.015625 2.0625q0.859375 0.765625 2.171875 0.765625q2.03125 0 3.171875 -1.46875l1.71875 1.9375q-0.78125 1.109375 -2.140625 1.75q-1.34375 0.625 -2.984375 0.625zm-0.390625 -10.796875q-1.046875 0 -1.703125 0.703125q-0.640625 0.703125 -0.828125 2.015625l4.890625 0l0 -0.265625q-0.03125 -1.171875 -0.640625 -1.8125q-0.609375 -0.640625 -1.71875 -0.640625zm11.086029 -2.59375l0.109375 1.46875q1.390625 -1.71875 3.78125 -1.71875q2.53125 0 3.4844055 2.015625q1.375 -2.015625 3.9375 -2.015625q2.140625 0 3.1875 1.25q1.046875 1.25 1.046875 3.75l0 8.390625l-3.515625 0l0 -8.375q0 -1.125 -0.4375 -1.640625q-0.4375 -0.515625 -1.546875 -0.515625q-1.578125 0 -2.1875 1.5l0.015625 9.03125l-3.5156555 0l0 -8.375q0 -1.140625 -0.453125 -1.640625q-0.453125 -0.515625 -1.53125 -0.515625q-1.484375 0 -2.15625 1.234375l0 9.296875l-3.515625 0l0 -13.140625l3.296875 0z" fill-rule="nonzero"/><path fill="#000000" fill-opacity="0.0" d="m640.4814 262.32544l0 0c0 -18.055817 14.637085 -32.692932 32.692932 -32.692932l115.055115 0l0 0c8.670654 0 16.986267 3.4444275 23.11737 9.575531c6.1311035 6.131119 9.5755005 14.446686 9.5755005 23.117401l0 0l0 0c0 18.055786 -14.637085 32.6929 -32.69287 32.6929l-115.055115 0c-18.055847 0 -32.692932 -14.6371155 -32.692932 -32.6929z" fill-rule="evenodd"/><path stroke="#e06666" stroke-width="1.0" stroke-linejoin="round" stroke-linecap="butt" d="m640.4814 262.32544l0 0c0 -18.055817 14.637085 -32.692932 32.692932 -32.692932l115.055115 0l0 0c8.670654 0 16.986267 3.4444275 23.11737 9.575531c6.1311035 6.131119 9.5755005 14.446686 9.5755005 23.117401l0 0l0 0c0 18.055786 -14.637085 32.6929 -32.69287 32.6929l-115.055115 0c-18.055847 0 -32.692932 -14.6371155 -32.692932 -32.6929z" fill-rule="evenodd"/><path fill="#000000" d="m681.0124 252.3223l-2.328125 0l0 5.203125l-2.9375 0l0 -14.21875l5.28125 0q2.53125 0 3.890625 1.125q1.375 1.125 1.375 3.171875q0 1.453125 -0.640625 2.421875q-0.625 0.96875 -1.90625 1.546875l3.078125 5.8125l0 0.140625l-3.140625 0l-2.671875 -5.203125zm-2.328125 -2.375l2.359375 0q1.109375 0 1.703125 -0.5625q0.609375 -0.5625 0.609375 -1.546875q0 -1.0 -0.578125 -1.578125q-0.5625 -0.578125 -1.75 -0.578125l-2.34375 0l0 4.265625zm18.634766 -6.640625l3.65625 10.3125l3.640625 -10.3125l3.84375 0l0 14.21875l-2.9375 0l0 -3.890625l0.28125 -6.703125l-3.828125 10.59375l-2.015625 0l-3.828125 -10.59375l0.296875 6.703125l0 3.890625l-2.9375 0l0 -14.21875l3.828125 0zm19.628906 14.21875q-0.1875 -0.375 -0.28125 -0.953125q-1.015625 1.15625 -2.65625 1.15625q-1.5625 0 -2.578125 -0.90625q-1.015625 -0.90625 -1.015625 -2.265625q0 -1.6875 1.234375 -2.578125q1.25 -0.90625 3.609375 -0.90625l1.296875 0l0 -0.609375q0 -0.734375 -0.375 -1.171875q-0.375 -0.4375 -1.1875 -0.4375q-0.71875 0 -1.125 0.34375q-0.40625 0.34375 -0.40625 0.9375l-2.8125 0q0 -0.921875 0.5625 -1.703125q0.5625 -0.78125 1.59375 -1.21875q1.046875 -0.453125 2.328125 -0.453125q1.953125 0 3.09375 0.984375q1.15625 0.984375 1.15625 2.765625l0 4.578125q0.015625 1.5 0.421875 2.265625l0 0.171875l-2.859375 0zm-2.328125 -1.96875q0.625 0 1.140625 -0.265625q0.53125 -0.28125 0.796875 -0.75l0 -1.828125l-1.0625 0q-2.109375 0 -2.25 1.46875l-0.015625 0.171875q0 0.53125 0.375 0.875q0.375 0.328125 1.015625 0.328125zm12.863281 -5.953125q-0.5625 -0.078125 -1.015625 -0.078125q-1.59375 0 -2.09375 1.078125l0 6.921875l-2.828125 0l0 -10.5625l2.671875 0l0.078125 1.25q0.84375 -1.453125 2.359375 -1.453125q0.46875 0 0.875 0.125l-0.046875 2.71875zm5.201172 3.6875l-1.015625 1.015625l0 3.21875l-2.828125 0l0 -15.0l2.828125 0l0 8.3125l0.546875 -0.703125l2.703125 -3.171875l3.390625 0l-3.8125 4.40625l4.140625 6.15625l-3.234375 0l-2.71875 -4.234375zm6.4023438 -1.125q0 -2.46875 1.109375 -3.9375q1.109375 -1.46875 3.03125 -1.46875q1.546875 0 2.546875 1.15625l0 -5.390625l2.84375 0l0 15.0l-2.546875 0l-0.140625 -1.125q-1.0625 1.328125 -2.71875 1.328125q-1.859375 0 -3.0 -1.46875q-1.125 -1.484375 -1.125 -4.09375zm2.828125 0.203125q0 1.484375 0.515625 2.28125q0.515625 0.78125 1.5 0.78125q1.3125 0 1.84375 -1.09375l0 -4.171875q-0.515625 -1.109375 -1.8125 -1.109375q-2.046875 0 -2.046875 3.3125zm8.441406 -0.21875q0 -1.578125 0.609375 -2.8125q0.609375 -1.234375 1.734375 -1.90625q1.140625 -0.671875 2.65625 -0.671875q2.140625 0 3.484375 1.3125q1.359375 1.3125 1.515625 3.546875l0.015625 0.734375q0 2.421875 -1.359375 3.90625q-1.359375 1.46875 -3.640625 1.46875q-2.28125 0 -3.65625 -1.46875q-1.359375 -1.46875 -1.359375 -3.984375l0 -0.125zm2.828125 0.203125q0 1.5 0.5625 2.296875q0.5625 0.796875 1.625 0.796875q1.03125 0 1.59375 -0.78125q0.578125 -0.796875 0.578125 -2.515625q0 -1.484375 -0.578125 -2.296875q-0.5625 -0.8125 -1.609375 -0.8125q-1.046875 0 -1.609375 0.8125q-0.5625 0.8125 -0.5625 2.5zm18.121094 1.328125l1.375 -6.71875l2.734375 0l-2.703125 10.5625l-2.359375 0l-2.0 -6.65625l-2.0 6.65625l-2.359375 0l-2.6875 -10.5625l2.71875 0l1.375 6.71875l1.9375 -6.71875l2.03125 0l1.9375 6.71875zm8.103516 -6.71875l0.078125 1.21875q1.140625 -1.421875 3.046875 -1.421875q1.671875 0 2.484375 0.984375q0.828125 0.984375 0.84375 2.953125l0 6.828125l-2.8125 0l0 -6.765625q0 -0.890625 -0.390625 -1.296875q-0.390625 -0.40625 -1.296875 -0.40625q-1.203125 0 -1.796875 1.015625l0 7.453125l-2.8125 0l0 -10.5625l2.65625 0z" fill-rule="nonzero"/><path fill="#000000" d="m701.5466 277.41605l1.921875 -10.109375l2.90625 0l-3.140625 14.21875l-2.953125 0l-2.3125 -9.515625l-2.3125 9.515625l-2.953125 0l-3.15625 -14.21875l2.921875 0l1.921875 10.09375l2.34375 -10.09375l2.484375 0l2.328125 10.109375zm11.099609 4.3125q-2.328125 0 -3.796875 -1.421875q-1.453125 -1.4375 -1.453125 -3.8125l0 -0.265625q0 -1.59375 0.609375 -2.84375q0.625 -1.265625 1.75 -1.9375q1.125 -0.6875 2.578125 -0.6875q2.15625 0 3.40625 1.375q1.25 1.359375 1.25 3.875l0 1.15625l-6.734375 0q0.140625 1.03125 0.828125 1.65625q0.6875 0.625 1.75 0.625q1.625 0 2.546875 -1.1875l1.375 1.5625q-0.625 0.890625 -1.71875 1.40625q-1.078125 0.5 -2.390625 0.5zm-0.328125 -8.6875q-0.84375 0 -1.375 0.578125q-0.515625 0.5625 -0.65625 1.609375l3.921875 0l0 -0.21875q-0.015625 -0.9375 -0.5 -1.453125q-0.484375 -0.515625 -1.390625 -0.515625zm15.794922 3.296875q0 2.546875 -1.09375 3.96875q-1.078125 1.421875 -3.015625 1.421875q-1.71875 0 -2.75 -1.328125l-0.125 1.125l-2.546875 0l0 -15.0l2.828125 0l0 5.375q0.984375 -1.140625 2.5625 -1.140625q1.9375 0 3.03125 1.421875q1.109375 1.421875 1.109375 4.0l0 0.15625zm-2.828125 -0.203125q0 -1.609375 -0.515625 -2.34375q-0.5 -0.734375 -1.5 -0.734375q-1.34375 0 -1.859375 1.109375l0 4.171875q0.515625 1.109375 1.875 1.109375q1.375 0 1.796875 -1.34375q0.203125 -0.65625 0.203125 -1.96875zm10.291016 2.46875q0 -0.515625 -0.515625 -0.8125q-0.515625 -0.296875 -1.640625 -0.53125q-3.78125 -0.796875 -3.78125 -3.203125q0 -1.40625 1.171875 -2.34375q1.171875 -0.953125 3.046875 -0.953125q2.015625 0 3.21875 0.953125q1.203125 0.9375 1.203125 2.453125l-2.8125 0q0 -0.59375 -0.390625 -0.984375q-0.390625 -0.40625 -1.21875 -0.40625q-0.71875 0 -1.109375 0.328125q-0.390625 0.3125 -0.390625 0.8125q0 0.46875 0.4375 0.765625q0.453125 0.28125 1.5 0.5q1.0625 0.203125 1.78125 0.46875q2.234375 0.8125 2.234375 2.84375q0 1.4375 -1.234375 2.34375q-1.234375 0.890625 -3.203125 0.890625q-1.328125 0 -2.359375 -0.46875q-1.03125 -0.484375 -1.625 -1.3125q-0.578125 -0.828125 -0.578125 -1.78125l2.671875 0q0.046875 0.75 0.5625 1.15625q0.515625 0.390625 1.390625 0.390625q0.8125 0 1.21875 -0.296875q0.421875 -0.3125 0.421875 -0.8125zm7.533203 2.921875l-2.828125 0l0 -10.5625l2.828125 0l0 10.5625zm-3.0 -13.296875q0 -0.640625 0.421875 -1.046875q0.4375 -0.40625 1.15625 -0.40625q0.734375 0 1.15625 0.40625q0.4375 0.40625 0.4375 1.046875q0 0.640625 -0.4375 1.046875q-0.4375 0.40625 -1.15625 0.40625q-0.703125 0 -1.140625 -0.40625q-0.4375 -0.40625 -0.4375 -1.046875zm8.708984 0.125l0 2.609375l1.796875 0l0 2.0625l-1.796875 0l0 5.28125q0 0.578125 0.21875 0.84375q0.21875 0.25 0.859375 0.25q0.46875 0 0.828125 -0.078125l0 2.140625q-0.828125 0.265625 -1.703125 0.265625q-2.96875 0 -3.03125 -3.0l0 -5.703125l-1.546875 0l0 -2.0625l1.546875 0l0 -2.609375l2.828125 0zm8.2421875 13.375q-2.328125 0 -3.796875 -1.421875q-1.453125 -1.4375 -1.453125 -3.8125l0 -0.265625q0 -1.59375 0.609375 -2.84375q0.625 -1.265625 1.75 -1.9375q1.125 -0.6875 2.578125 -0.6875q2.15625 0 3.40625 1.375q1.25 1.359375 1.25 3.875l0 1.15625l-6.734375 0q0.140625 1.03125 0.828125 1.65625q0.6875 0.625 1.75 0.625q1.625 0 2.546875 -1.1875l1.375 1.5625q-0.625 0.890625 -1.71875 1.40625q-1.078125 0.5 -2.390625 0.5zm-0.328125 -8.6875q-0.84375 0 -1.375 0.578125q-0.515625 0.5625 -0.65625 1.609375l3.921875 0l0 -0.21875q-0.015625 -0.9375 -0.5 -1.453125q-0.484375 -0.515625 -1.390625 -0.515625zm11.998047 5.5625q0 -0.515625 -0.515625 -0.8125q-0.515625 -0.296875 -1.640625 -0.53125q-3.78125 -0.796875 -3.78125 -3.203125q0 -1.40625 1.171875 -2.34375q1.171875 -0.953125 3.046875 -0.953125q2.015625 0 3.21875 0.953125q1.203125 0.9375 1.203125 2.453125l-2.8125 0q0 -0.59375 -0.390625 -0.984375q-0.390625 -0.40625 -1.21875 -0.40625q-0.71875 0 -1.109375 0.328125q-0.390625 0.3125 -0.390625 0.8125q0 0.46875 0.4375 0.765625q0.453125 0.28125 1.5 0.5q1.0625 0.203125 1.78125 0.46875q2.234375 0.8125 2.234375 2.84375q0 1.4375 -1.234375 2.34375q-1.234375 0.890625 -3.203125 0.890625q-1.328125 0 -2.359375 -0.46875q-1.03125 -0.484375 -1.625 -1.3125q-0.578125 -0.828125 -0.578125 -1.78125l2.671875 0q0.046875 0.75 0.5625 1.15625q0.515625 0.390625 1.390625 0.390625q0.8125 0 1.21875 -0.296875q0.421875 -0.3125 0.421875 -0.8125z" fill-rule="nonzero"/><path fill="#000000" fill-opacity="0.0" d="m91.60368 262.32544l0 0c0 -18.055817 14.6371155 -32.692932 32.692917 -32.692932l131.74802 0l0 0c8.670715 0 16.986298 3.4444275 23.117401 9.575531c6.1311035 6.131119 9.575531 14.446686 9.575531 23.117401l0 0l0 0c0 18.055786 -14.6371155 32.6929 -32.692932 32.6929l-131.74802 0c-18.055801 0 -32.692917 -14.6371155 -32.692917 -32.6929z" fill-rule="evenodd"/><path stroke="#e06666" stroke-width="1.0" stroke-linejoin="round" stroke-linecap="butt" d="m91.60368 262.32544l0 0c0 -18.055817 14.6371155 -32.692932 32.692917 -32.692932l131.74802 0l0 0c8.670715 0 16.986298 3.4444275 23.117401 9.575531c6.1311035 6.131119 9.575531 14.446686 9.575531 23.117401l0 0l0 0c0 18.055786 -14.6371155 32.6929 -32.692932 32.6929l-131.74802 0c-18.055801 0 -32.692917 -14.6371155 -32.692917 -32.6929z" fill-rule="evenodd"/><path fill="#000000" d="m154.26143 264.33792q0 2.546875 -1.09375 3.96875q-1.078125 1.421875 -3.015625 1.421875q-1.71875 0 -2.75 -1.328125l-0.125 1.125l-2.546875 0l0 -15.0l2.828125 0l0 5.375q0.984375 -1.140625 2.5625 -1.140625q1.9375 0 3.03125 1.421875q1.109375 1.421875 1.109375 4.0l0 0.15625zm-2.828125 -0.203125q0 -1.609375 -0.515625 -2.34375q-0.5 -0.734375 -1.5 -0.734375q-1.34375 0 -1.859375 1.109375l0 4.171875q0.515625 1.109375 1.875 1.109375q1.375 0 1.796875 -1.34375q0.203125 -0.65625 0.203125 -1.96875zm4.1191406 0.015625q0 -1.578125 0.609375 -2.8125q0.609375 -1.234375 1.734375 -1.90625q1.140625 -0.671875 2.65625 -0.671875q2.140625 0 3.484375 1.3125q1.359375 1.3125 1.515625 3.546875l0.015625 0.734375q0 2.421875 -1.359375 3.90625q-1.359375 1.46875 -3.640625 1.46875q-2.28125 0 -3.65625 -1.46875q-1.359375 -1.46875 -1.359375 -3.984375l0 -0.125zm2.828125 0.203125q0 1.5 0.5625 2.296875q0.5625 0.796875 1.625 0.796875q1.03125 0 1.59375 -0.78125q0.578125 -0.796875 0.578125 -2.515625q0 -1.484375 -0.578125 -2.296875q-0.5625 -0.8125 -1.609375 -0.8125q-1.046875 0 -1.609375 0.8125q-0.5625 0.8125 -0.5625 2.5zm8.480469 -0.203125q0 -1.578125 0.609375 -2.8125q0.609375 -1.234375 1.734375 -1.90625q1.140625 -0.671875 2.65625 -0.671875q2.140625 0 3.484375 1.3125q1.359375 1.3125 1.515625 3.546875l0.015625 0.734375q0 2.421875 -1.359375 3.90625q-1.359375 1.46875 -3.640625 1.46875q-2.28125 0 -3.65625 -1.46875q-1.359375 -1.46875 -1.359375 -3.984375l0 -0.125zm2.828125 0.203125q0 1.5 0.5625 2.296875q0.5625 0.796875 1.625 0.796875q1.03125 0 1.59375 -0.78125q0.578125 -0.796875 0.578125 -2.515625q0 -1.484375 -0.578125 -2.296875q-0.5625 -0.8125 -1.609375 -0.8125q-1.046875 0 -1.609375 0.8125q-0.5625 0.8125 -0.5625 2.5zm12.761719 0.9375l-1.015625 1.015625l0 3.21875l-2.828125 0l0 -15.0l2.828125 0l0 8.3125l0.546875 -0.703125l2.703125 -3.171875l3.390625 0l-3.8125 4.40625l4.140625 6.15625l-3.234375 0l-2.71875 -4.234375zm6.4023438 -1.125q0 -2.46875 1.109375 -3.9375q1.109375 -1.46875 3.03125 -1.46875q1.546875 0 2.546875 1.15625l0 -5.390625l2.84375 0l0 15.0l-2.546875 0l-0.140625 -1.125q-1.0625 1.328125 -2.71875 1.328125q-1.859375 0 -3.0 -1.46875q-1.125 -1.484375 -1.125 -4.09375zm2.828125 0.203125q0 1.484375 0.515625 2.28125q0.515625 0.78125 1.5 0.78125q1.3125 0 1.84375 -1.09375l0 -4.171875q-0.515625 -1.109375 -1.8125 -1.109375q-2.046875 0 -2.046875 3.3125zm8.441406 -0.21875q0 -1.578125 0.609375 -2.8125q0.609375 -1.234375 1.734375 -1.90625q1.140625 -0.671875 2.65625 -0.671875q2.140625 0 3.484375 1.3125q1.359375 1.3125 1.515625 3.546875l0.015625 0.734375q0 2.421875 -1.359375 3.90625q-1.359375 1.46875 -3.640625 1.46875q-2.28125 0 -3.65625 -1.46875q-1.359375 -1.46875 -1.359375 -3.984375l0 -0.125zm2.828125 0.203125q0 1.5 0.5625 2.296875q0.5625 0.796875 1.625 0.796875q1.03125 0 1.59375 -0.78125q0.578125 -0.796875 0.578125 -2.515625q0 -1.484375 -0.578125 -2.296875q-0.5625 -0.8125 -1.609375 -0.8125q-1.046875 0 -1.609375 0.8125q-0.5625 0.8125 -0.5625 2.5zm18.121094 1.328125l1.375 -6.71875l2.734375 0l-2.703125 10.5625l-2.359375 0l-2.0 -6.65625l-2.0 6.65625l-2.359375 0l-2.6875 -10.5625l2.71875 0l1.375 6.71875l1.9375 -6.71875l2.03125 0l1.9375 6.71875zm8.103516 -6.71875l0.078125 1.21875q1.140625 -1.421875 3.046875 -1.421875q1.671875 0 2.484375 0.984375q0.828125 0.984375 0.84375 2.953125l0 6.828125l-2.8125 0l0 -6.765625q0 -0.890625 -0.390625 -1.296875q-0.390625 -0.40625 -1.296875 -0.40625q-1.203125 0 -1.796875 1.015625l0 7.453125l-2.8125 0l0 -10.5625l2.65625 0z" fill-rule="nonzero"/><path fill="#000000" fill-opacity="0.0" d="m460.8378 162.09973l0 33.76378l269.85825 0l0 33.763794" fill-rule="evenodd"/><path stroke="#c2c2c2" stroke-width="3.0" stroke-linejoin="round" stroke-linecap="butt" d="m460.8378 162.09973l0 33.76378l269.85825 0l0 33.763794" fill-rule="evenodd"/><path fill="#000000" fill-opacity="0.0" d="m190.17061 229.6325l0 -33.76378l270.6772 0l0 -33.76378" fill-rule="evenodd"/><path stroke="#c2c2c2" stroke-width="3.0" stroke-linejoin="round" stroke-linecap="butt" d="m190.17061 229.6325l0 -33.76378l270.6772 0l0 -33.76378" fill-rule="evenodd"/><path fill="#000000" fill-opacity="0.0" d="m460.79794 229.6325l0 -18.125977l0.09451294 0l0 -18.125992" fill-rule="evenodd"/><path stroke="#c2c2c2" stroke-width="3.0" stroke-linejoin="round" stroke-linecap="butt" d="m460.79794 229.6325l0 -18.125977l0.09451294 0l0 -18.125992" fill-rule="evenodd"/><path fill="#000000" fill-opacity="0.0" d="m362.23102 262.32544l0 0c0 -18.055817 14.6371155 -32.692932 32.692932 -32.692932l131.74805 0l0 0c8.670654 0 16.986267 3.4444275 23.11737 9.575531c6.1311035 6.131119 9.5755005 14.446686 9.5755005 23.117401l0 0l0 0c0 18.055786 -14.637085 32.6929 -32.69287 32.6929l-131.74805 0c-18.055817 0 -32.692932 -14.6371155 -32.692932 -32.6929z" fill-rule="evenodd"/><path stroke="#e06666" stroke-width="1.0" stroke-linejoin="round" stroke-linecap="butt" d="m362.23102 262.32544l0 0c0 -18.055817 14.6371155 -32.692932 32.692932 -32.692932l131.74805 0l0 0c8.670654 0 16.986267 3.4444275 23.11737 9.575531c6.1311035 6.131119 9.5755005 14.446686 9.5755005 23.117401l0 0l0 0c0 18.055786 -14.637085 32.6929 -32.69287 32.6929l-131.74805 0c-18.055817 0 -32.692932 -14.6371155 -32.692932 -32.6929z" fill-rule="evenodd"/><path fill="#000000" d="m427.52548 264.33792q0 2.546875 -1.09375 3.96875q-1.078125 1.421875 -3.015625 1.421875q-1.71875 0 -2.75 -1.328125l-0.125 1.125l-2.546875 0l0 -15.0l2.828125 0l0 5.375q0.984375 -1.140625 2.5625 -1.140625q1.9375 0 3.03125 1.421875q1.109375 1.421875 1.109375 4.0l0 0.15625zm-2.828125 -0.203125q0 -1.609375 -0.515625 -2.34375q-0.5 -0.734375 -1.5 -0.734375q-1.34375 0 -1.859375 1.109375l0 4.171875q0.515625 1.109375 1.875 1.109375q1.375 0 1.796875 -1.34375q0.203125 -0.65625 0.203125 -1.96875zm7.5410156 5.390625l-2.828125 0l0 -15.0l2.828125 0l0 15.0zm1.8808594 -5.375q0 -1.578125 0.609375 -2.8125q0.609375 -1.234375 1.734375 -1.90625q1.140625 -0.671875 2.65625 -0.671875q2.140625 0 3.484375 1.3125q1.359375 1.3125 1.515625 3.546875l0.015625 0.734375q0 2.421875 -1.359375 3.90625q-1.359375 1.46875 -3.640625 1.46875q-2.28125 0 -3.65625 -1.46875q-1.359375 -1.46875 -1.359375 -3.984375l0 -0.125zm2.828125 0.203125q0 1.5 0.5625 2.296875q0.5625 0.796875 1.625 0.796875q1.03125 0 1.59375 -0.78125q0.578125 -0.796875 0.578125 -2.515625q0 -1.484375 -0.578125 -2.296875q-0.5625 -0.8125 -1.609375 -0.8125q-1.046875 0 -1.609375 0.8125q-0.5625 0.8125 -0.5625 2.5zm8.511719 -0.1875q0 -2.4375 1.15625 -3.921875q1.15625 -1.484375 3.125 -1.484375q1.734375 0 2.703125 1.1875l0.125 -0.984375l2.546875 0l0 10.203125q0 1.390625 -0.625 2.421875q-0.625 1.03125 -1.78125 1.5625q-1.140625 0.53125 -2.671875 0.53125q-1.15625 0 -2.265625 -0.46875q-1.09375 -0.453125 -1.671875 -1.1875l1.25 -1.71875q1.0625 1.1875 2.5625 1.1875q1.125 0 1.75 -0.609375q0.625 -0.59375 0.625 -1.703125l0 -0.5625q-0.96875 1.109375 -2.5625 1.109375q-1.90625 0 -3.09375 -1.484375q-1.171875 -1.5 -1.171875 -3.96875l0 -0.109375zm2.828125 0.203125q0 1.4375 0.578125 2.25q0.578125 0.8125 1.578125 0.8125q1.28125 0 1.84375 -0.96875l0 -4.4375q-0.5625 -0.96875 -1.828125 -0.96875q-1.015625 0 -1.59375 0.828125q-0.578125 0.828125 -0.578125 2.484375zm8.556641 -0.203125q0 -2.46875 1.109375 -3.9375q1.109375 -1.46875 3.03125 -1.46875q1.546875 0 2.546875 1.15625l0 -5.390625l2.84375 0l0 15.0l-2.546875 0l-0.140625 -1.125q-1.0625 1.328125 -2.71875 1.328125q-1.859375 0 -3.0 -1.46875q-1.125 -1.484375 -1.125 -4.09375zm2.828125 0.203125q0 1.484375 0.515625 2.28125q0.515625 0.78125 1.5 0.78125q1.3125 0 1.84375 -1.09375l0 -4.171875q-0.515625 -1.109375 -1.8125 -1.109375q-2.046875 0 -2.046875 3.3125zm8.441406 -0.21875q0 -1.578125 0.609375 -2.8125q0.609375 -1.234375 1.734375 -1.90625q1.140625 -0.671875 2.65625 -0.671875q2.140625 0 3.484375 1.3125q1.359375 1.3125 1.515625 3.546875l0.015625 0.734375q0 2.421875 -1.359375 3.90625q-1.359375 1.46875 -3.640625 1.46875q-2.28125 0 -3.65625 -1.46875q-1.359375 -1.46875 -1.359375 -3.984375l0 -0.125zm2.828125 0.203125q0 1.5 0.5625 2.296875q0.5625 0.796875 1.625 0.796875q1.03125 0 1.59375 -0.78125q0.578125 -0.796875 0.578125 -2.515625q0 -1.484375 -0.578125 -2.296875q-0.5625 -0.8125 -1.609375 -0.8125q-1.046875 0 -1.609375 0.8125q-0.5625 0.8125 -0.5625 2.5zm18.121094 1.328125l1.375 -6.71875l2.734375 0l-2.703125 10.5625l-2.359375 0l-2.0 -6.65625l-2.0 6.65625l-2.359375 0l-2.6875 -10.5625l2.71875 0l1.375 6.71875l1.9375 -6.71875l2.03125 0l1.9375 6.71875zm8.103516 -6.71875l0.078125 1.21875q1.140625 -1.421875 3.046875 -1.421875q1.671875 0 2.484375 0.984375q0.828125 0.984375 0.84375 2.953125l0 6.828125l-2.8125 0l0 -6.765625q0 -0.890625 -0.390625 -1.296875q-0.390625 -0.40625 -1.296875 -0.40625q-1.203125 0 -1.796875 1.015625l0 7.453125l-2.8125 0l0 -10.5625l2.65625 0z" fill-rule="nonzero"/><path fill="#000000" fill-opacity="0.0" d="m91.603676 295.85913l197.13385 0l0 159.1496l-197.13385 0z" fill-rule="evenodd"/><path fill="#000000" d="m127.78394 316.90536l-4.125 0l0 -1.28125l4.125 0l0 1.28125z" fill-rule="nonzero"/><path fill="#000000" d="m141.11977 318.84286q-3.328125 2.859375 -6.84375 3.921875l-0.59375 -1.59375q3.515625 -1.0 6.3125 -3.390625q-2.328125 -2.53125 -3.125 -5.84375l-3.1875 0l0 -1.265625l6.375 0l0 -2.515625l1.453125 0q0.671875 0.125 0.078125 0.53125l0 1.984375l6.4375 0l0 1.265625l-3.125 0q-0.53125 3.125 -2.78125 5.84375q2.3125 2.0625 6.171875 3.046875l-0.59375 1.609375q-3.390625 -0.875 -6.578125 -3.59375zm-0.0625 -2.125q1.984375 -2.390625 2.453125 -4.78125l-5.1875 0q0.40625 2.25 2.734375 4.78125zm16.859375 -6.90625q-0.0625 0.46875 -0.390625 1.859375l2.046875 0l0 -3.65625l1.265625 0q0.53125 0.0625 0.0625 0.40625l0 3.25l3.265625 0l0 1.265625l-3.265625 0l0 3.3125l4.59375 0l0 1.265625l-4.59375 0l0 5.375l-1.328125 0l0 -5.375l-4.90625 0l0 -1.265625l4.90625 0l0 -3.3125l-2.453125 0q-0.65625 1.78125 -1.59375 2.84375l-1.125 -1.0625q1.921875 -2.453125 2.125 -5.640625l1.59375 0.40625q0.265625 0.265625 -0.203125 0.328125zm-4.109375 13.15625l-1.328125 0l0 -8.25q-0.46875 0.875 -1.203125 1.734375l-1.0625 -1.203125q2.53125 -2.921875 2.984375 -7.359375l1.40625 0.265625q0.453125 0.125 0 0.328125q-0.40625 2.1875 -0.9375 3.71875l0.265625 0.0625q0.203125 0.203125 -0.125 0.40625l0 10.296875zm17.59375 0.125q-1.59375 -1.796875 -3.328125 -2.921875l1.0 -1.328125q2.125 1.265625 3.515625 2.859375l-1.1875 1.390625zm19.648438 -11.03125q-1.390625 -0.984375 -2.515625 -2.984375q-0.796875 1.859375 -2.0 2.984375l4.515625 0zm-6.375 2.265625l8.4375 0l0 7.578125q0 0.984375 -0.796875 0.984375l-1.0 0l-0.265625 -1.0625l0.671875 0q0.265625 0 0.265625 -0.265625l0 -2.78125l-1.390625 0l0 3.71875l-1.140625 0l0 -3.71875l-1.25 0l0 3.78125l-1.140625 0l0 -3.78125l-1.25 0l0 4.109375l-1.140625 0l0 -8.5625zm5.921875 1.0625l0 2.328125l1.390625 0l0 -2.328125l-1.390625 0zm-2.390625 0l0 2.328125l1.25 0l0 -2.328125l-1.25 0zm-2.390625 0l0 2.328125l1.25 0l0 -2.328125l-1.25 0zm3.78125 -7.5q0.265625 0.265625 -0.203125 0.328125q1.59375 2.65625 4.65625 3.84375l-0.734375 1.328125q-1.265625 -0.59375 -1.859375 -1.0625l0 1.0l-5.109375 0l0 -1.0625q-0.875 0.859375 -1.859375 1.53125l-0.796875 -1.265625q2.78125 -1.59375 4.046875 -4.90625l1.859375 0.265625zm-9.296875 10.75l0 2.53125l2.0625 0l0 -2.53125l-2.0625 0zm3.1875 4.0625l-1.125 0l0 -0.46875l-2.0625 0l0 0.796875l-1.125 0l0 -5.453125l4.3125 0l0 5.125zm-3.984375 -7.578125l3.71875 0l0 1.265625l-3.71875 0l0 -1.265625zm0 -2.390625l3.71875 0l0 1.265625l-3.71875 0l0 -1.265625zm-0.796875 -2.328125l5.515625 0l0 1.265625l-5.515625 0l0 -1.265625zm0.796875 -2.328125l3.71875 0l0 1.265625l-3.71875 0l0 -1.265625zm23.90625 10.765625q-3.328125 2.859375 -6.84375 3.921875l-0.59375 -1.59375q3.515625 -1.0 6.3125 -3.390625q-2.328125 -2.53125 -3.125 -5.84375l-3.1875 0l0 -1.265625l6.375 0l0 -2.515625l1.453125 0q0.671875 0.125 0.078125 0.53125l0 1.984375l6.4375 0l0 1.265625l-3.125 0q-0.53125 3.125 -2.78125 5.84375q2.3125 2.0625 6.171875 3.046875l-0.59375 1.609375q-3.390625 -0.875 -6.578125 -3.59375zm-0.0625 -2.125q1.984375 -2.390625 2.453125 -4.78125l-5.1875 0q0.40625 2.25 2.734375 4.78125zm13.34375 6.375q-1.59375 -1.796875 -3.328125 -2.921875l1.0 -1.328125q2.125 1.265625 3.515625 2.859375l-1.1875 1.390625zm10.9609375 -3.984375l0 0.65625l7.625 0l0 -0.65625l-7.625 0zm3.1875 -9.234375l-4.65625 0l0 -1.0625l4.65625 0l0 -1.1875l1.25 0q0.53125 0.0625 0.078125 0.390625l0 0.796875l4.578125 0l0 1.796875l2.1875 0l0 1.0625l-2.1875 0l0 1.859375l-4.578125 0l0 0.796875l4.84375 0l0 1.0625l-4.84375 0l0 0.796875l6.96875 0l0 1.0625l-15.28125 0l0 -1.0625l6.984375 0l0 -0.796875l-4.859375 0l0 -1.0625l4.859375 0l0 -0.796875l-4.71875 0l0 -1.0625l4.71875 0l0 -0.796875l-6.71875 0l0 -1.0625l6.71875 0l0 -0.734375zm-4.515625 8.171875l10.28125 0l0 4.84375l-1.328125 0l0 -0.328125l-7.625 0l0 0.328125l-1.328125 0l0 -4.84375zm1.328125 2.78125l0 0.671875l7.625 0l0 -0.671875l-7.625 0zm7.765625 -10.21875l0 -0.734375l-3.25 0l0 0.734375l3.25 0zm-3.25 1.0625l0 0.796875l3.25 0l0 -0.796875l-3.25 0zm12.015625 -2.71875l3.984375 0l0 1.0625l-2.1875 0l0.65625 1.0625l-1.1875 0.390625l-0.734375 -1.453125l-1.0625 0q-0.671875 1.125 -1.859375 2.1875l-0.796875 -0.9375q1.796875 -1.515625 2.515625 -3.578125l1.265625 0.203125q0.46875 0.1875 -0.125 0.328125l-0.46875 0.734375zm5.84375 4.90625l-1.390625 0l0 -1.0625l1.390625 0l0 -1.1875l1.0625 0q0.53125 0.0625 0.0625 0.390625l0 0.796875l1.46875 0l0 -1.1875l1.0625 0q0.53125 0.0625 0.0625 0.390625l0 0.796875l1.53125 0l0 1.0625l-1.53125 0l0 1.265625l2.25 0l0 1.0625l-7.890625 0l0 -1.0625l1.921875 0l0 -1.265625zm0.796875 -6.046875q0.390625 0.203125 -0.0625 0.34375l-0.34375 0.796875l5.25 0l0 1.0625l-3.3125 0l0.71875 1.25l-1.25 0.265625l-0.734375 -1.515625l-1.125 0q-0.734375 1.1875 -1.671875 2.046875l-0.796875 -0.921875q1.40625 -1.265625 2.265625 -3.59375l1.0625 0.265625zm-10.03125 12.828125q1.921875 -0.875 3.25 -2.859375l-2.71875 0l0 -1.0625l2.71875 0l0 -0.859375l-2.046875 0l0 -1.0625l2.046875 0l0 -0.875l-2.453125 0l0 -1.0625l2.453125 0l0 -1.25l1.0625 0q0.53125 0.0625 0.078125 0.390625l0 0.859375l2.515625 0l0 1.0625l-2.515625 0l0 0.875l2.046875 0l0 1.0625l-2.046875 0l0 0.859375l2.71875 0l0 1.0625l-2.71875 0l0 0.46875q1.25 0.328125 2.984375 1.59375l-0.59375 1.125q-1.40625 -1.265625 -2.390625 -1.59375l0 3.65625l-1.140625 0l0 -3.453125q-0.796875 1.125 -2.453125 2.328125l-0.796875 -1.265625zm10.359375 -5.515625l1.46875 0l0 -1.265625l-1.46875 0l0 1.265625zm-1.984375 7.90625l0 -5.984375l5.703125 0l0 5.78125l-1.125 0l0 -0.328125l-3.453125 0l0 0.53125l-1.125 0zm1.125 -3.796875l3.453125 0l0 -1.125l-3.453125 0l0 1.125zm0 2.203125l3.453125 0l0 -1.140625l-3.453125 0l0 1.140625z" fill-rule="nonzero"/><path fill="#000000" fill-opacity="0.0" d="m356.1368 295.85913l209.32285 0l0 159.1496l-209.32285 0z" fill-rule="evenodd"/><path fill="#000000" d="m391.1955 316.90536l-4.125 0l0 -1.28125l4.125 0l0 1.28125z" fill-rule="nonzero"/><path fill="#000000" d="m396.62506 320.76474q0.53125 -1.53125 0.796875 -3.65625l1.203125 0.265625q0.1875 0.203125 -0.140625 0.40625q-0.265625 2.0625 -0.734375 3.515625l-1.125 -0.53125zm2.59375 -5.90625l2.0625 -0.140625l-0.53125 -1.125l0.984375 -0.46875q0.671875 1.0625 1.203125 2.53125l0 -7.3125l8.4375 0l0 13.421875q0 1.0 -0.875 1.0l-1.25 0l-0.265625 -1.0625l1.0625 0q0.1875 0 0.1875 -0.203125l0 -4.921875l-3.640625 0l0 1.859375q0 0.40625 0.390625 0.40625l2.328125 0l0 1.0625l-2.65625 0q-1.203125 0 -1.203125 -1.203125l0 -2.125l-1.390625 0l0 6.390625l-1.125 0l0 -6.984375l-1.0 0.46875l-0.265625 -0.671875l-1.265625 0.140625l0 6.96875l-1.125 0l0 -6.84375l-2.125 0.203125q-0.203125 0.59375 -0.328125 0.203125l-0.203125 -1.53125l1.125 0l1.140625 -1.53125q-1.140625 -1.25 -2.203125 -2.1875l0.796875 -0.859375l0.609375 0.59375l1.59375 -3.125l1.125 0.671875q0.328125 0.265625 -0.265625 0.328125l-1.65625 2.921875l0.65625 0.671875l1.65625 -2.65625l1.0625 0.71875q0.34375 0.265625 -0.265625 0.34375l-2.78125 4.046875zm8.296875 -1.921875l0.9375 -2.921875l1.25 0.328125q0.46875 0.125 -0.1875 0.328125l-1.0 2.265625l1.71875 0l0 -3.53125l-6.171875 0l0 3.53125l3.453125 0zm-5.578125 4.046875q0.59375 1.390625 0.796875 3.1875l-1.125 0.46875q-0.203125 -1.859375 -0.671875 -3.328125l1.0 -0.328125zm3.984375 -6.90625q0.59375 0.734375 1.125 2.0625l-1.0625 0.453125q-0.453125 -1.328125 -1.0625 -2.125l1.0 -0.390625zm-1.859375 5.4375l2.53125 0l0 -1.515625l-2.53125 0l0 1.515625zm6.171875 0l0 -1.515625l-2.515625 0l0 1.515625l2.515625 0zm5.65625 -2.125q0.453125 2.59375 0.71875 5.1875l-1.328125 0.125q-0.265625 -2.453125 -0.796875 -5.046875l1.40625 -0.265625zm7.4375 -5.375l1.25 0q0.53125 0.0625 0.078125 0.40625l0 2.65625l4.046875 0l0 1.25l-4.046875 0l0 2.921875l3.515625 0l0 7.3125l-1.328125 0l0 -0.796875l-4.578125 0l0 0.9375l-1.328125 0l0 -7.453125l2.390625 0l0 -7.234375zm-2.65625 4.390625l-6.78125 0l0 -1.265625l2.859375 0l0 -2.984375l1.265625 0q0.53125 0.0625 0.0625 0.390625l0 2.59375l2.59375 0l0 1.265625zm-5.984375 8.828125q-0.203125 0.671875 -0.46875 0.0625l-0.453125 -1.328125l3.78125 -0.46875q0.53125 -3.25 0.65625 -6.5625l1.671875 0.390625q0.59375 0.265625 -0.140625 0.46875q-0.265625 2.65625 -0.859375 5.578125l1.65625 -0.265625l0 1.1875l-5.84375 0.9375zm7.578125 -0.734375l4.578125 0l0 -3.984375l-4.578125 0l0 3.984375z" fill-rule="nonzero"/><path fill="#000000" d="m435.61792 322.5616l-1.34375 0l5.140625 -13.375l1.34375 0l-5.140625 13.375z" fill-rule="nonzero"/><path fill="#000000" d="m458.50186 320.82724l-0.265625 -1.453125l1.0625 0q0.921875 0 0.734375 -1.53125q-0.265625 -1.859375 -1.671875 -3.25l1.203125 -4.453125l-2.1875 0l0 12.890625l-1.328125 0l0 -14.15625l3.90625 0l0.140625 -0.1875l1.1875 0.984375l-0.265625 0.203125l-1.453125 4.453125q1.984375 2.1875 1.921875 3.921875q-0.0625 2.578125 -1.796875 2.578125l-1.1875 0zm-10.6875 -4.578125l6.296875 0l0 6.046875l-1.328125 0l0 -0.734375l-3.640625 0l0 1.0625l-1.328125 0l0 -6.375zm1.328125 1.265625l0 2.78125l3.640625 0l0 -2.78125l-3.640625 0zm1.125 -9.765625l1.453125 0q0.671875 0.140625 0.078125 0.53125l0 1.46875l3.109375 0l0 1.25l-0.921875 0l-0.9375 2.796875l2.53125 0l0 1.265625l-9.09375 0l0 -1.265625l2.515625 0l-0.796875 -2.796875l-0.859375 0l0 -1.25l2.921875 0l0 -2.0zm2.1875 3.25l-2.71875 0l0.65625 2.796875l1.265625 0l0.796875 -2.796875zm24.5 2.125q-1.0625 1.46875 -2.515625 2.65625q1.859375 0.9375 4.453125 1.328125l-0.46875 1.328125q-3.125 -0.796875 -4.921875 -1.984375q-1.71875 1.125 -2.84375 1.59375l6.03125 0l0 4.78125l-1.125 0l0 -0.796875l-4.3125 0l0 0.9375l-1.125 0l0 -4.65625q-1.0625 0.46875 -1.9375 0.734375l-0.53125 -1.140625q2.203125 -0.53125 4.859375 -2.1875q-0.796875 -0.796875 -1.46875 -1.59375q-1.328125 1.59375 -2.65625 2.390625l-0.53125 -1.1875q2.390625 -1.46875 3.453125 -4.328125l1.203125 0.34375q0.265625 0.265625 -0.203125 0.328125l-0.203125 0.53125l3.78125 0l0.265625 -0.265625l1.0 0.921875q0.203125 0.34375 -0.203125 0.265625zm-13.46875 8.640625q1.71875 -1.859375 2.921875 -3.921875l1.0625 0.734375q-1.0625 2.0625 -2.53125 3.859375q0.140625 0.390625 -0.203125 0.328125l-1.25 -1.0zm8.234375 -8.5q0.71875 1.0 1.71875 1.859375q1.203125 -0.859375 1.859375 -1.859375l-3.578125 0zm3.84375 7.703125l0 -1.859375l-4.3125 0l0 1.859375l4.3125 0zm-9.15625 -3.78125q-1.0625 -0.875 -2.59375 -1.59375l0.734375 -1.140625q1.453125 0.53125 2.578125 1.53125l-0.71875 1.203125zm-0.609375 -5.390625q1.53125 0.734375 2.46875 1.53125l-0.734375 1.125q-1.0625 -0.796875 -2.453125 -1.515625l0.71875 -1.140625zm6.984375 -2.515625l0 -1.59375l1.25 0q0.53125 0.0625 0.078125 0.390625l0 1.203125l3.984375 0l0 1.0625l-3.984375 0l0 1.125l-1.328125 0l0 -1.125l-3.453125 0l0 1.53125l-1.328125 0l0 -1.53125l-4.1875 0l0 -1.0625l4.1875 0l0 -1.59375l1.25 0q0.53125 0.0625 0.078125 0.390625l0 1.203125l3.453125 0zm22.375 7.703125q-2.796875 -0.9375 -4.578125 -2.390625q-1.40625 1.265625 -4.1875 2.59375l-0.40625 -1.0625l-0.59375 0.859375q-0.53125 -0.859375 -1.125 -1.390625l0 7.375l-1.328125 0l0 -7.3125q-0.59375 1.796875 -1.859375 3.3125l-0.859375 -1.25q2.1875 -2.796875 2.65625 -5.578125l-2.265625 0l0 -1.265625l2.328125 0l0 -3.0625l1.265625 0q0.453125 0.140625 0.0625 0.40625l0 2.65625l1.921875 0l0 1.265625l-1.921875 0l0 1.984375q1.1875 0.671875 1.859375 1.53125q2.390625 -0.859375 3.515625 -1.921875q-0.65625 -0.734375 -1.265625 -1.859375q-0.328125 0.859375 -1.65625 2.25l-1.0 -1.0625q2.390625 -2.25 3.0625 -5.375l1.390625 0.328125q0.265625 0.265625 -0.203125 0.328125l-0.390625 1.203125l3.453125 0l0.265625 -0.328125l1.0 0.859375l-0.34375 0.203125q-0.921875 1.859375 -2.390625 3.453125q1.734375 1.125 4.1875 1.859375l-0.59375 1.390625zm-2.53125 5.640625l0 -0.65625l-3.90625 0l0 0.921875l-1.328125 0l0 -6.109375l6.5625 0l0 5.84375l-1.328125 0zm0 -1.71875l0 -3.0625l-3.90625 0l0 3.0625l3.90625 0zm-1.984375 -8.046875q0.921875 -0.859375 1.59375 -2.25l-3.125 0q0.59375 1.265625 1.53125 2.25z" fill-rule="nonzero"/><path fill="#000000" d="m507.01035 313.53036q0.609375 0 0.671875 -0.59375l0.125 -2.203125l-1.65625 0q-0.0625 2.859375 -3.515625 4.59375l-0.53125 -1.328125q2.59375 -1.0 2.71875 -3.265625l-2.1875 0l0 -1.25l2.25 0l0 -1.671875l1.265625 0q0.53125 0.078125 0.0625 0.40625l0 1.265625l2.921875 0l-0.265625 3.78125q-0.125 1.53125 -1.390625 1.53125l-1.125 0l-0.203125 -1.265625l0.859375 0zm7.4375305 1.125l0 -0.328125l-3.0469055 0l0 0.46875l-1.328125 0l0 -5.984375l5.7031555 0l0 5.84375l-1.328125 0zm-3.0469055 -1.59375l3.0469055 0l0 -2.984375l-3.0469055 0l0 2.984375zm-1.59375 2.125q0.53125 0.0625 0.0625 0.40625l0 0.71875l6.1094055 0l0 1.265625l-5.8437805 0q1.734375 1.796875 6.3750305 2.984375l-0.46875 1.53125q-3.78125 -1.125 -6.1719055 -3.3125l0 4.1875l-1.328125 0l0 -4.0625q-1.796875 2.125 -5.90625 3.328125l-0.46875 -1.53125q4.125 -0.9375 6.046875 -3.125l-5.78125 0l0 -1.265625l6.109375 0l0 -1.125l1.265625 0zm15.6719055 1.125l0 -1.25l6.109375 0l0.203125 -0.203125l0.984375 0.734375q0.34375 0.328125 -0.125 0.265625q-1.0 2.390625 -2.390625 3.984375q0.921875 0.71875 3.84375 1.59375l-0.390625 1.390625q-2.921875 -1.0 -4.390625 -2.0625q-1.859375 1.46875 -3.84375 2.203125l-0.671875 -1.265625q2.0 -0.53125 3.59375 -1.796875q-1.0 -1.265625 -1.859375 -3.59375l-1.0625 0zm0.859375 -7.96875l4.921875 0l0 3.71875q0 0.53125 0.453125 0.53125l0.46875 0q0.53125 0 0.53125 -1.25l1.328125 0.328125q-0.0625 2.1875 -1.53125 2.1875l-1.390625 0q-1.1875 0 -1.1875 -1.125l0 -3.125l-2.265625 0l0 1.59375q0 2.453125 -2.1875 3.65625l-0.734375 -1.0625q1.59375 -0.59375 1.59375 -2.71875l0 -2.734375zm-1.859375 14.421875l-1.125 0l0 -0.40625l-2.71875 0l0 0.671875l-1.140625 0l0 -5.390625l4.984375 0l0 5.125zm0.59375 -12.21875l0 1.25l-6.234375 0l0 -1.25l6.234375 0zm-0.921875 -2.390625l0 1.25l-4.390625 0l0 -1.25l4.390625 0zm0 4.703125l0 1.265625l-4.390625 0l0 -1.265625l4.390625 0zm0 2.328125l0 1.265625l-4.390625 0l0 -1.265625l4.390625 0zm-0.796875 3.515625l-2.71875 0l0 2.59375l2.71875 0l0 -2.59375zm5.96875 0.40625q1.140625 -1.328125 1.734375 -2.796875l-3.25 0q0.53125 1.59375 1.515625 2.796875z" fill-rule="nonzero"/><path fill="#000000" fill-opacity="0.0" d="m646.6125 295.85913l246.8346 0l0 92.944885l-246.8346 0z" fill-rule="evenodd"/><path fill="#000000" d="m656.15936 317.78036l0 -1.53125l4.6875 0l0 1.53125l-4.6875 0z" fill-rule="nonzero"/><path fill="#000000" d="m670.5097 308.28036q-0.0625 0.40625 -0.390625 0.9375l4.3125 0l0 1.0625l-2.328125 0l0.46875 0.984375l-1.453125 0.265625l-0.40625 -1.25l-1.125 0q-0.734375 1.0625 -1.859375 2.125l-0.796875 -1.140625q1.71875 -1.59375 2.390625 -3.640625l1.328125 0.265625q0.203125 0.1875 -0.140625 0.390625zm11.421875 0.9375l0 1.0625l-3.1875 0l0.53125 1.0625l-1.515625 0.265625l-0.46875 -1.328125l-1.125 0q-0.609375 0.984375 -1.46875 1.859375l-0.921875 -0.9375q1.453125 -1.453125 2.046875 -3.515625l1.40625 0.203125q0.265625 0.1875 -0.203125 0.453125q-0.140625 0.40625 -0.328125 0.875l5.234375 0zm-12.484375 7.09375l0 6.65625l-1.125 0l0 -10.96875l5.640625 0l0 4.3125l-4.515625 0zm5.84375 0l0 -4.3125l5.71875 0l0 9.96875q0 0.921875 -0.9375 0.921875l-1.0625 0l-0.125 -1.25l0.734375 0q0.265625 0 0.265625 -0.28125l0 -5.046875l-2.328125 0l-2.265625 0zm-5.84375 -0.796875l3.390625 0l0 -0.984375l-3.390625 0l0 0.984375zm0 -1.78125l3.390625 0l0 -0.9375l-3.390625 0l0 0.9375zm6.984375 1.78125l3.453125 0l0 -0.984375l-3.453125 0l0 0.984375zm0 -1.78125l3.453125 0l0 -0.9375l-3.453125 0l0 0.9375zm-4.65625 8.5l0 -4.984375l5.71875 0l0 4.78125l-1.140625 0l0 -0.265625l-3.453125 0l0 0.46875l-1.125 0zm1.125 -1.265625l3.453125 0l0 -1.0625l-3.453125 0l0 1.0625zm0 -1.859375l3.453125 0l0 -1.0625l-3.453125 0l0 1.0625zm26.375 1.0625l-6.90625 0l0 2.71875l-1.328125 0l0 -2.71875l-6.984375 0l0 -1.265625l6.984375 0l0 -1.0625l-2.390625 0l-2.390625 0l0 -5.375l10.6875 0l0 5.375l-4.578125 0l0 1.0625l6.90625 0l0 1.265625zm-3.65625 -3.390625l0 -1.125l-3.25 0l0 1.125l3.25 0zm-4.578125 -3.25l-3.453125 0l0 1.0625l3.453125 0l0 -1.0625zm4.578125 1.0625l0 -1.0625l-3.25 0l0 1.0625l3.25 0zm-4.578125 2.1875l0 -1.125l-3.453125 0l0 1.125l3.453125 0zm-1.46875 -6.171875l0 -1.265625l-2.859375 0l0 1.265625l2.859375 0zm1.328125 -2.328125l0 3.390625l-5.515625 0l0 -3.390625l5.515625 0zm1.328125 0l5.515625 0l0 3.390625l-5.515625 0l0 -3.390625zm4.1875 2.328125l0 -1.265625l-2.859375 0l0 1.265625l2.859375 0zm4.578125 10.15625q0.53125 -1.53125 0.796875 -3.65625l1.203125 0.265625q0.1875 0.203125 -0.140625 0.40625q-0.265625 2.0625 -0.734375 3.515625l-1.125 -0.53125zm2.59375 -5.90625l2.0625 -0.140625l-0.53125 -1.125l0.984375 -0.46875q0.671875 1.0625 1.203125 2.53125l0 -7.3125l8.4375 0l0 13.421875q0 1.0 -0.875 1.0l-1.25 0l-0.265625 -1.0625l1.0625 0q0.1875 0 0.1875 -0.203125l0 -4.921875l-3.640625 0l0 1.859375q0 0.40625 0.390625 0.40625l2.328125 0l0 1.0625l-2.65625 0q-1.203125 0 -1.203125 -1.203125l0 -2.125l-1.390625 0l0 6.390625l-1.125 0l0 -6.984375l-1.0 0.46875l-0.265625 -0.671875l-1.265625 0.140625l0 6.96875l-1.125 0l0 -6.84375l-2.125 0.203125q-0.203125 0.59375 -0.328125 0.203125l-0.203125 -1.53125l1.125 0l1.140625 -1.53125q-1.140625 -1.25 -2.203125 -2.1875l0.796875 -0.859375l0.609375 0.59375l1.59375 -3.125l1.125 0.671875q0.328125 0.265625 -0.265625 0.328125l-1.65625 2.921875l0.65625 0.671875l1.65625 -2.65625l1.0625 0.71875q0.34375 0.265625 -0.265625 0.34375l-2.78125 4.046875zm8.296875 -1.921875l0.9375 -2.921875l1.25 0.328125q0.46875 0.125 -0.1875 0.328125l-1.0 2.265625l1.71875 0l0 -3.53125l-6.171875 0l0 3.53125l3.453125 0zm-5.578125 4.046875q0.59375 1.390625 0.796875 3.1875l-1.125 0.46875q-0.203125 -1.859375 -0.671875 -3.328125l1.0 -0.328125zm3.984375 -6.90625q0.59375 0.734375 1.125 2.0625l-1.0625 0.453125q-0.453125 -1.328125 -1.0625 -2.125l1.0 -0.390625zm-1.859375 5.4375l2.53125 0l0 -1.515625l-2.53125 0l0 1.515625zm6.171875 0l0 -1.515625l-2.515625 0l0 1.515625l2.515625 0zm5.65625 -2.125q0.453125 2.59375 0.71875 5.1875l-1.328125 0.125q-0.265625 -2.453125 -0.796875 -5.046875l1.40625 -0.265625zm7.4375 -5.375l1.25 0q0.53125 0.0625 0.078125 0.40625l0 2.65625l4.046875 0l0 1.25l-4.046875 0l0 2.921875l3.515625 0l0 7.3125l-1.328125 0l0 -0.796875l-4.578125 0l0 0.9375l-1.328125 0l0 -7.453125l2.390625 0l0 -7.234375zm-2.65625 4.390625l-6.78125 0l0 -1.265625l2.859375 0l0 -2.984375l1.265625 0q0.53125 0.0625 0.0625 0.390625l0 2.59375l2.59375 0l0 1.265625zm-5.984375 8.828125q-0.203125 0.671875 -0.46875 0.0625l-0.453125 -1.328125l3.78125 -0.46875q0.53125 -3.25 0.65625 -6.5625l1.671875 0.390625q0.59375 0.265625 -0.140625 0.46875q-0.265625 2.65625 -0.859375 5.578125l1.65625 -0.265625l0 1.1875l-5.84375 0.9375zm7.578125 -0.734375l4.578125 0l0 -3.984375l-4.578125 0l0 3.984375z" fill-rule="nonzero"/><path fill="#000000" d="m669.28796 346.13974q-1.25 -1.578125 -2.125 -3.703125q-0.875 -2.140625 -0.875 -4.4375q0 -2.0 0.65625 -3.84375q0.765625 -2.140625 2.34375 -4.265625l1.09375 0q-1.015625 1.75 -1.34375 2.5q-0.515625 1.171875 -0.8125 2.4375q-0.375 1.59375 -0.375 3.1875q0 4.0625 2.53125 8.125l-1.09375 0z" fill-rule="nonzero"/><path fill="#000000" d="m671.4802 335.8585q2.390625 -2.390625 3.25 -7.109375l1.390625 0.40625q0.265625 0.265625 -0.1875 0.328125q-0.796875 2.78125 -1.0625 3.515625l0.265625 0.0625q0.1875 0.203125 -0.140625 0.40625l0 10.359375l-1.328125 0l0 -8.4375q-0.734375 1.0625 -1.453125 1.734375l-0.734375 -1.265625zm3.78125 2.78125q2.0625 -2.125 2.453125 -7.359375l-1.390625 0l0 -1.265625l5.90625 0l0 1.265625l-3.25 0l-0.265625 2.125l2.796875 0l0 1.59375q0 5.703125 -4.59375 8.765625l-0.796875 -1.203125q2.328125 -1.453125 3.390625 -4.046875q-1.0 -0.859375 -1.796875 -1.203125q-0.59375 1.265625 -1.515625 2.46875l-0.9375 -1.140625zm2.859375 -2.515625q1.0 0.328125 1.796875 1.0q0.328125 -1.203125 0.328125 -2.46875l-1.734375 0q-0.0625 0.609375 -0.390625 1.46875zm6.703125 6.234375q0.265625 0 0.265625 -0.265625l0 -12.671875l1.265625 0q0.53125 0.0625 0.0625 0.390625l0 12.890625q0 0.921875 -0.859375 0.921875l-1.796875 0l-0.125 -1.265625l1.1875 0zm-1.0 -2.3125l-1.328125 0l0 -8.84375l1.265625 0q0.53125 0.078125 0.0625 0.40625l0 8.4375z" fill-rule="nonzero"/><path fill="#000000" d="m689.55835 342.4991l0 -1.734375l1.734375 0l0 1.734375q0 0.953125 -0.34375 1.53125q-0.34375 0.59375 -1.078125 0.921875l-0.421875 -0.65625q0.484375 -0.203125 0.703125 -0.625q0.234375 -0.40625 0.265625 -1.171875l-0.859375 0z" fill-rule="nonzero"/><path fill="#000000" d="m707.8745 332.40536q-0.734375 1.859375 -3.796875 2.59375l6.71875 0l0 6.171875l-9.4375 0l0 -6.171875l2.390625 0l-0.65625 -1.140625q3.640625 -0.53125 3.78125 -2.921875l-1.125 0q-0.734375 1.140625 -1.59375 1.796875l-0.9375 -0.734375q1.53125 -1.390625 2.453125 -3.453125l1.140625 0.40625q0.265625 0.265625 -0.203125 0.328125l-0.265625 0.59375l5.3125 0l0.203125 -0.1875l1.0625 0.71875l-0.34375 0.265625q-0.453125 0.796875 -1.65625 2.0l-1.0 -0.671875q0.53125 -0.453125 1.0 -1.0625l-2.78125 0q1.125 2.203125 5.375 3.0l-0.53125 1.25q-3.65625 -0.65625 -5.109375 -2.78125zm4.640625 11.484375q-3.046875 -0.453125 -5.109375 -1.71875l1.0 -0.9375q2.125 1.0625 4.515625 1.328125l-0.40625 1.328125zm-13.484375 -1.125q2.859375 -0.40625 4.71875 -1.53125l1.0 0.9375q0.265625 0.46875 -0.40625 0.265625q-2.125 1.0625 -4.84375 1.59375l-0.46875 -1.265625zm10.4375 -5.984375l0 -0.984375l-6.78125 0l0 0.984375l6.78125 0zm-8.90625 -7.703125q1.0 0.46875 2.1875 1.140625l-0.859375 1.125q-0.859375 -0.53125 -2.1875 -1.125l0.859375 -1.140625zm-0.59375 5.84375q-0.140625 0.671875 -0.46875 0.078125l-0.734375 -1.140625q2.0 -0.71875 3.59375 -1.71875l0.65625 1.0q-1.59375 1.0625 -3.046875 1.78125zm9.5 3.65625l0 -1.0l-6.78125 0l0 1.0l6.78125 0zm0 1.796875l0 -1.0l-6.78125 0l0 1.0l6.78125 0zm5.96875 0.203125q2.796875 -2.203125 3.515625 -4.59375l-3.046875 0l0 -1.25l3.046875 0l0 -5.921875l1.265625 0q0.53125 0.078125 0.0625 0.40625l0 5.515625l2.734375 0l0 1.25l-2.734375 0l0 0.875q1.671875 0.984375 2.734375 2.1875l-0.796875 1.328125q-1.0625 -1.265625 -1.9375 -1.921875l0 5.515625l-1.328125 0l0 -5.125q-0.859375 1.59375 -2.65625 3.0625l-0.859375 -1.328125zm5.375 -6.90625q0.671875 -1.46875 1.265625 -3.59375l1.390625 0.46875q0.34375 0.265625 -0.125 0.265625q-0.671875 1.984375 -1.265625 3.390625l-1.265625 -0.53125zm-3.640625 -3.1875q0.921875 1.59375 1.25 3.046875l-1.328125 0.53125q-0.328125 -1.328125 -1.1875 -3.046875l1.265625 -0.53125zm11.484375 -1.46875q0.53125 0.0625 0.0625 0.40625l0 8.421875l1.796875 -0.453125l0.390625 1.390625l-2.1875 0.46875l0 4.71875l-1.328125 0l0 -4.390625l-3.578125 0.796875l-0.34375 -1.390625l3.921875 -0.796875l0 -9.171875l1.265625 0zm-3.78125 1.921875q1.25 0.796875 1.984375 1.59375l-0.921875 1.203125q-0.609375 -0.59375 -1.9375 -1.65625l0.875 -1.140625zm-0.203125 3.65625q1.0 0.59375 1.984375 1.59375l-0.921875 1.203125q-0.796875 -0.875 -1.921875 -1.671875l0.859375 -1.125zm11.625 -5.84375q0.53125 0.0625 0.0625 0.40625l0 2.390625l1.453125 0l0.265625 -0.265625l1.0 0.859375l-0.265625 0.203125q-1.0625 1.984375 -2.453125 3.515625l0 0.265625q1.390625 0.53125 2.65625 1.390625l-0.796875 1.328125q-0.796875 -0.796875 -1.859375 -1.453125l0 6.640625l-1.328125 0l0 -6.84375q-0.9375 0.921875 -2.125 1.796875l-0.59375 -1.40625q3.109375 -1.984375 4.640625 -4.78125l-4.109375 0l0 -1.25l2.1875 0l0 -2.796875l1.265625 0zm7.359375 9.765625l-1.1875 0l0 0.59375q0 3.859375 -4.578125 4.921875l-0.46875 -1.390625q3.71875 -0.9375 3.71875 -3.390625l0 -0.734375l-0.734375 0l-0.65625 0l0 -9.171875l7.03125 0l0 9.171875l-1.796875 0l0 3.390625q0 0.53125 0.46875 0.53125l0.59375 0q0.34375 0 0.40625 -0.40625l0.203125 -1.1875l1.328125 0.328125q-0.203125 2.53125 -1.59375 2.53125l-1.46875 0q-1.265625 0 -1.265625 -1.203125l0 -3.984375zm-2.578125 -6.578125l4.375 0l0 -1.328125l-4.375 0l0 1.328125zm0 2.53125l4.375 0l0 -1.265625l-4.375 0l0 1.265625zm0 2.78125l4.375 0l0 -1.53125l-4.375 0l0 1.53125zm23.5625 3.859375l-0.265625 1.453125q-0.1875 1.140625 -1.328125 1.140625l-3.90625 0q-1.0625 0 -1.0625 -1.203125l0 -1.734375l-2.125 0q-0.265625 3.265625 -5.921875 3.328125l-0.328125 -1.265625q4.578125 0.140625 4.984375 -2.0625l-2.0625 0l0 -5.234375l9.171875 0l0 5.234375l-2.390625 0l0 1.46875q0 0.40625 0.53125 0.40625l2.65625 0q0.53125 0 0.59375 -0.609375l0.125 -1.328125l1.328125 0.40625zm-7.03125 -9.234375q0.59375 -0.40625 1.0 -0.734375l0.59375 0.46875q0.328125 0.265625 -0.203125 0.265625q-0.328125 0.203125 -0.59375 0.390625q0.59375 0.265625 1.125 0.609375l-0.53125 0.71875q-0.59375 -0.390625 -1.390625 -0.796875q-0.796875 0.53125 -2.265625 0.9375l-0.390625 -0.734375q1.1875 -0.203125 1.796875 -0.59375q-0.53125 -0.265625 -1.265625 -0.53125l0.59375 -0.59375q0.9375 0.265625 1.53125 0.59375zm0.53125 -2.0625q0.53125 0.203125 1.1875 0.59375l-0.59375 0.609375q-0.734375 -0.46875 -1.390625 -0.734375q-0.859375 0.53125 -1.796875 0.921875l-0.46875 -0.59375q0.671875 -0.203125 1.46875 -0.65625q-0.59375 -0.265625 -1.328125 -0.53125l0.53125 -0.609375q0.796875 0.265625 1.59375 0.609375q0.53125 -0.34375 1.125 -0.9375l0.59375 0.46875q0.34375 0.265625 -0.1875 0.265625q-0.265625 0.265625 -0.734375 0.59375zm-5.578125 2.328125l2.0625 0l0 0.796875l-2.0625 0l0 0.859375l9.15625 0l0 -0.859375l-2.046875 0l0 -0.796875l2.046875 0l0 -0.859375l-2.046875 0l0 -0.796875l2.046875 0l0 -0.734375l-2.046875 0l0 -0.796875l3.1875 0l0 4.84375l1.515625 0l0 2.71875l-1.328125 0l0 -1.65625l-11.6875 0l0 1.65625l-1.328125 0l0 -2.71875l1.40625 0l0 -4.90625l1.328125 0.1875q0.921875 -0.265625 1.859375 -0.53125l0.453125 1.140625l-2.515625 0.265625l0 0.53125l2.0625 0l0 0.796875l-2.0625 0l0 0.859375zm8.09375 4.84375l0 -0.65625l-6.90625 0l0 0.65625l6.90625 0zm0 1.46875l0 -0.671875l-6.90625 0l0 0.671875l6.90625 0zm0 1.515625l0 -0.71875l-6.90625 0l0 0.71875l6.90625 0zm6.046875 -3.578125q2.859375 -2.59375 3.59375 -7.109375l1.453125 0.40625q0.46875 0.125 -0.203125 0.53125q-0.125 0.984375 -0.921875 2.921875l0.390625 0.125q0.265625 0.203125 -0.1875 0.46875l0 9.828125l-1.328125 0l0 -8.296875q-0.796875 1.25 -1.9375 2.3125l-0.859375 -1.1875zm14.75 3.25l-0.203125 1.53125q-0.265625 1.921875 -1.921875 1.921875l-4.453125 0q-1.203125 0 -1.203125 -1.125l0 -12.484375l1.265625 0q0.671875 0.0625 0.0625 0.390625l0 4.921875q2.53125 -1.0 4.65625 -2.59375l1.0 1.203125q0.453125 0.390625 -0.34375 0.390625q-2.84375 1.46875 -5.3125 2.453125l0 4.859375q0 0.53125 0.46875 0.53125l3.515625 0q0.734375 0 0.796875 -0.671875l0.140625 -1.59375l1.53125 0.265625zm5.765625 -4.984375l0 0.53125l-1.328125 0l0 -5.578125l10.5 0l0 5.515625l-1.328125 0l0 -0.46875l-7.84375 0zm7.84375 -1.25l0 -2.53125l-7.84375 0l0 2.53125l7.84375 0zm-3.1875 4.046875l0 1.53125l4.78125 0l0 1.25l-4.78125 0l0 1.671875l6.90625 0l0 1.265625l-15.28125 0l0 -1.265625l7.046875 0l0 -1.671875l-4.921875 0l0 -1.25l4.921875 0l0 -1.53125l-5.78125 0l0 -1.265625l12.6875 0l0 1.265625l-5.578125 0zm8.5625 2.65625q1.53125 -0.265625 2.53125 -0.46875l0 -3.578125l-2.0625 0l0 -1.265625l2.0625 0l0 -3.515625l-2.390625 0l0 -1.265625l5.90625 0l0 1.265625l-2.1875 0l0 3.515625l1.859375 0l0 1.265625l-1.859375 0l0 3.3125l2.125 -0.59375l0.328125 1.125q-2.859375 0.9375 -5.453125 1.59375q-0.1875 0.46875 -0.390625 0.203125l-0.46875 -1.59375zm13.015625 -8.03125l0 -1.59375l-5.046875 0l0 1.59375l5.046875 0zm0 2.65625l0 -1.59375l-5.046875 0l0 1.59375l5.046875 0zm0 2.65625l0 -1.59375l-5.046875 0l0 1.59375l5.046875 0zm-1.921875 1.0625l-1.265625 0l0 0.65625q0 4.0625 -6.234375 4.78125l-0.46875 -1.453125q5.375 -0.46875 5.375 -3.390625l0 -0.59375l-0.921875 0l-0.9375 0l0 -9.03125l7.703125 0l0 9.03125l-1.921875 0l0 3.515625q0 0.53125 0.46875 0.53125l0.453125 0q0.40625 0 0.53125 -0.40625q0.140625 -0.390625 0.265625 -1.59375l1.40625 0.40625q-0.140625 0.921875 -0.265625 1.453125q-0.34375 1.40625 -1.328125 1.40625l-1.734375 0q-1.125 0 -1.125 -1.125l0 -4.1875z" fill-rule="nonzero"/><path fill="#000000" d="m818.78076 346.13974l-1.09375 0q2.53125 -4.0625 2.53125 -8.125q0 -1.59375 -0.359375 -3.15625q-0.296875 -1.265625 -0.8125 -2.4375q-0.328125 -0.765625 -1.359375 -2.53125l1.09375 0q1.59375 2.125 2.359375 4.265625q0.640625 1.84375 0.640625 3.84375q0 2.296875 -0.875 4.4375q-0.875 2.125 -2.125 3.703125z" fill-rule="nonzero"/></g></svg>